<svg width="14" height="14" viewBox="0 0 14 14" fill="none" xmlns="http://www.w3.org/2000/svg">
<path d="M11.125 8.5H10.375C10.2755 8.5 10.1802 8.53951 10.1098 8.60983C10.0395 8.68016 10 8.77554 10 8.875V11.5H2.5V4H5.875C5.97446 4 6.06984 3.96049 6.14016 3.89016C6.21049 3.81984 6.25 3.72446 6.25 3.625V2.875C6.25 2.77554 6.21049 2.68016 6.14016 2.60984C6.06984 2.53951 5.97446 2.5 5.875 2.5H2.125C1.82663 2.5 1.54048 2.61853 1.3295 2.8295C1.11853 3.04048 1 3.32663 1 3.625L1 11.875C1 12.1734 1.11853 12.4595 1.3295 12.6705C1.54048 12.8815 1.82663 13 2.125 13H10.375C10.6734 13 10.9595 12.8815 11.1705 12.6705C11.3815 12.4595 11.5 12.1734 11.5 11.875V8.875C11.5 8.77554 11.4605 8.68016 11.3902 8.60983C11.3198 8.53951 11.2245 8.5 11.125 8.5ZM12.4375 1H9.4375C8.93664 1 8.68633 1.60727 9.03906 1.96094L9.87648 2.79836L4.16406 8.50867C4.11162 8.56093 4.07001 8.62303 4.04162 8.6914C4.01323 8.75977 3.99862 8.83308 3.99862 8.90711C3.99862 8.98114 4.01323 9.05445 4.04162 9.12282C4.07001 9.19119 4.11162 9.25329 4.16406 9.30555L4.69539 9.83594C4.74765 9.88838 4.80974 9.92999 4.87812 9.95838C4.94649 9.98677 5.0198 10.0014 5.09383 10.0014C5.16786 10.0014 5.24117 9.98677 5.30954 9.95838C5.37791 9.92999 5.44001 9.88838 5.49227 9.83594L11.2019 4.12469L12.0391 4.96094C12.3906 5.3125 13 5.06641 13 4.5625V1.5625C13 1.41332 12.9407 1.27024 12.8352 1.16475C12.7298 1.05926 12.5867 1 12.4375 1V1Z" fill="black"/>
</svg>
